<svg width="820" height="517" viewBox="0 0 820 517" fill="none" xmlns="http://www.w3.org/2000/svg">
<g clip-path="url(#clip0)">
<path d="M2.31959 528.996C2.31959 528.996 -14.9329 365.911 45.5233 316.406C98.2956 273.358 142.224 247.198 231.531 243.887C320.838 240.576 369.986 240.576 423.338 173.024C476.69 105.472 549.035 3.64701 629.788 0.170074C707.641 -3.1413 755.339 24.8398 799.993 222.529C844.646 420.218 798.543 522.373 797.093 524.029C796.078 525.188 2.31959 528.996 2.31959 528.996Z" fill="#1916BA"/>
<path d="M365.347 400.017C370.276 332.134 352.009 232.793 373.32 218.885C394.487 205.309 401.591 200.838 423.483 173.188C476.835 105.636 549.035 3.64616 629.788 0.16922C707.641 -3.14215 755.339 24.8389 799.993 222.528C822.32 321.372 821.015 373.526 818.84 404.819C817.68 422.038 816.521 444.39 815.796 445.218C814.636 446.377 361.287 456.476 365.347 400.017Z" fill="#1916BA"/>
<path d="M184.703 180.971L178.324 525.684C178.324 528.168 184.123 527.34 185.573 527.34H194.271L192.822 181.467L244.579 183.123L222.107 37.9194C220.948 30.4689 215.293 24.8395 208.479 24.8395H172.67C164.116 24.8395 156.722 31.7934 155.272 41.3964L133.38 179.646L184.703 180.971Z" fill="#E1E6FC"/>
<path d="M95.3957 446.046C95.3957 446.046 95.1057 459.623 97.1354 461.113C98.0053 461.94 99.0201 462.437 100.035 462.768L110.039 524.194C110.039 524.194 139.179 530.32 153.822 523.366L163.826 462.768L167.16 461.278L168.465 446.046C168.465 446.046 132.655 432.469 95.3957 446.046Z" fill="#E1E6FC"/>
<path d="M98.73 462.437C98.73 462.437 137.874 465.914 142.514 464.424C147.153 462.934 145.848 450.847 145.848 450.847L165.13 448.529C165.13 448.529 165.13 461.444 163.825 462.934C162.376 464.921 161.216 467.239 160.491 469.722C160.491 470.55 152.517 524.36 152.517 524.36C152.517 524.36 139.904 526.678 137.874 526.678C135.845 526.678 143.238 481.974 143.238 478.994C143.238 476.014 143.238 469.888 141.209 469.888C139.179 469.888 100.905 471.212 100.615 466.245C100.325 464.755 99.7448 463.431 98.73 462.437Z" fill="#BAC4F6"/>
<path d="M114.243 448.861C114.243 448.861 103.37 440.085 97.5704 439.258C91.7713 438.43 85.1023 437.602 79.3031 436.609C73.504 435.615 66.1101 432.635 66.255 428.661C66.4 424.688 67.1249 422.866 70.4594 420.714C73.359 418.562 76.5485 417.237 80.028 416.74C82.6376 416.409 108.734 424.191 119.607 442.735L123.957 448.861H114.243V448.861Z" fill="#BAC4F6"/>
<path d="M76.4036 427.337C76.4036 427.337 86.4071 427.171 91.9163 429.158C96.2657 430.979 100.325 433.132 104.384 435.781L120.767 448.861" fill="#BAC4F6"/>
<path d="M76.4036 427.337C76.4036 427.337 86.4071 427.171 91.9163 429.158C96.2657 430.979 100.325 433.132 104.384 435.781L120.767 448.861" stroke="white" stroke-width="0.369165" stroke-miterlimit="10" stroke-linecap="round"/>
<path d="M125.696 448.364C125.696 448.364 112.938 428.661 108.009 423.197C103.079 417.734 97.2803 411.277 92.496 405.482C87.7117 399.687 81.7676 391.408 84.2322 387.931C86.6969 384.454 88.5816 382.136 93.2209 382.964C96.8454 383.461 100.325 384.786 103.224 387.269C105.834 389.09 128.886 414.257 132.22 443.066L135.555 448.861L125.696 448.364Z" fill="#BAC4F6"/>
<path d="M95.8306 394.554C95.8306 394.554 105.689 401.342 109.604 407.8C113.228 413.926 119.027 424.688 119.027 424.688L125.696 445.384" stroke="white" stroke-width="0.369165" stroke-miterlimit="10" stroke-linecap="round"/>
<path d="M132.075 449.357C132.075 449.357 117.288 412.601 114.533 405.316C111.778 398.031 100.47 387.104 98.0054 379.653C95.5408 372.202 93.946 366.904 96.5557 362.765C99.1653 358.626 105.979 355.314 110.329 357.798C114.388 360.116 119.752 367.07 122.072 370.547C123.957 373.361 135.99 423.198 134.975 434.787L137.295 449.523L132.075 449.357Z" fill="#E9EDFC"/>
<path d="M105.979 371.375C105.979 371.375 114.533 383.958 117.143 391.243C120.042 399.521 122.942 415.25 122.507 412.767L131.351 446.874" stroke="white" stroke-width="0.369165" stroke-miterlimit="10" stroke-linecap="round"/>
<path d="M123.957 449.192C123.957 449.192 110.909 432.138 104.53 428.827C98.1505 425.515 90.9016 421.873 84.6675 418.23C78.4334 414.588 71.0395 408.627 72.1993 404.985C73.3591 401.342 74.8089 399.852 79.3033 399.19C83.2177 398.362 87.2771 398.528 91.1915 399.521C94.0911 400.349 121.347 419.224 128.306 441.576L131.496 449.357L123.957 449.192Z" fill="#E9EDFC"/>
<path d="M84.2324 408.131C84.2324 408.131 95.5408 412.436 101.195 416.74C105.399 420.383 109.459 424.191 113.373 428.496L125.841 449.357" stroke="white" stroke-width="0.369165" stroke-miterlimit="10" stroke-linecap="round"/>
<path d="M158.027 449.523C158.027 449.523 169.915 441.244 176.149 440.417C182.383 439.589 189.632 438.927 196.011 437.933C202.39 436.94 210.219 434.125 210.074 430.483C209.929 426.84 209.204 425.019 205.435 422.866C202.245 420.88 198.766 419.555 195.141 419.058C192.387 418.727 164.116 426.178 152.228 443.894L147.443 449.688L158.027 449.523Z" fill="#BAC4F6"/>
<path d="M198.91 428.827C198.91 428.827 188.037 428.661 182.093 430.648C177.454 432.304 172.959 434.456 168.61 436.94L152.807 449.026" fill="#BAC4F6"/>
<path d="M198.91 428.827C198.91 428.827 188.037 428.661 182.093 430.648C177.454 432.304 172.959 434.456 168.61 436.94L152.807 449.026" stroke="white" stroke-width="0.369165" stroke-miterlimit="10" stroke-linecap="round"/>
<path d="M145.559 449.026C145.559 449.026 159.332 430.151 164.696 424.853C170.06 419.555 176.294 413.429 181.513 407.965C186.733 402.501 193.257 394.554 190.502 391.243C187.747 387.931 185.863 385.779 180.788 386.441C176.874 386.772 173.249 388.263 169.915 390.58C167.16 392.402 142.224 416.409 138.6 443.894L134.975 449.523L145.559 449.026Z" fill="#BAC4F6"/>
<path d="M177.889 397.7C177.889 397.7 167.16 404.157 162.956 410.283C159.042 416.078 152.663 426.509 152.663 426.509L145.559 446.212" stroke="white" stroke-width="0.369165" stroke-miterlimit="10" stroke-linecap="round"/>
<path d="M138.744 450.02C138.744 450.02 154.837 414.919 157.737 407.965C160.636 401.011 172.959 390.58 175.714 383.461C178.469 376.342 180.208 371.209 177.309 367.401C174.409 363.593 167.015 360.281 162.376 362.599C157.882 364.752 152.228 371.375 149.618 374.851C147.588 377.501 134.54 425.184 135.555 436.277L133.09 450.351L138.744 450.02Z" fill="#E9EDFC"/>
<path d="M137.15 449.523C137.15 449.523 138.454 415.25 141.499 404.157C143.529 396.706 145.558 384.289 148.313 377.335C151.068 370.381 146.863 361.109 144.109 357.136C141.354 353.162 133.96 353.99 129.176 356.308C124.681 358.46 122.217 365.58 121.637 369.388C121.202 372.865 131.785 414.091 130.626 429.323L131.495 449.854L137.15 449.523Z" fill="#BAC4F6"/>
<path d="M167.015 375.514C167.015 375.514 157.882 387.435 154.982 394.554C151.793 402.501 148.748 417.568 149.183 415.085L138.745 448.529" stroke="white" stroke-width="0.369165" stroke-miterlimit="10" stroke-linecap="round"/>
<path d="M147.588 449.688C147.588 449.688 161.796 433.463 168.61 430.317C175.424 427.171 183.398 423.694 190.067 420.217C196.736 416.74 204.855 411.111 203.55 407.634C202.245 404.157 200.796 402.833 195.866 402.17C191.662 401.508 187.312 401.508 183.108 402.501C179.919 403.329 150.488 421.211 142.949 442.569L139.469 449.854L147.588 449.688Z" fill="#E9EDFC"/>
<path d="M190.357 410.614C190.357 410.614 178.179 414.588 172.09 418.727C167.45 422.038 163.101 425.847 158.897 429.82L145.124 447.37" stroke="white" stroke-width="0.369165" stroke-miterlimit="10" stroke-linecap="round"/>
<path d="M134.25 363.427C134.25 363.427 136.715 392.733 135.265 400.68C134.685 403.992 134.975 424.688 134.975 424.688L134.395 447.536" stroke="white" stroke-width="0.369165" stroke-miterlimit="10" stroke-linecap="round"/>
<path d="M134.83 172.03L242.404 174.348L244.579 183.123L133.525 179.812L134.83 172.03Z" fill="#BAC4F6"/>
<path d="M663.858 193.388L662.988 434.787L797.238 435.118C797.238 435.118 798.253 307.962 792.889 186.269L664.148 184.116L663.858 193.388Z" fill="#BAC4F6"/>
<path d="M537.437 224.681L533.957 435.45H648.635L647.91 224.681H537.437Z" fill="#BAC4F6"/>
<path d="M370.855 348.36L535.841 349.354L533.957 435.449L371.435 435.284L370.855 348.36Z" fill="#BAC4F6"/>
<path d="M357.228 226.833L357.663 435.946C357.663 435.946 358.678 449.026 369.696 449.688C380.714 450.351 814.491 450.516 814.491 450.516C814.491 450.516 818.405 436.608 816.811 436.112C815.216 435.615 371.436 435.615 371.436 435.615C371.436 435.615 371.581 428.165 371.581 423.529C371.581 418.23 371.291 220.542 371.291 220.542C366.941 223.025 362.157 225.177 357.228 226.833Z" fill="white"/>
<path d="M366.796 247.529L805.647 250.675L807.967 261.437L366.796 263.92V247.529Z" fill="white"/>
<path d="M490.608 84.7753V435.781L502.206 436.774V75.669L490.608 84.7753Z" fill="white"/>
<path d="M700.247 14.2431L699.958 435.781L710.686 434.787L712.426 22.5216L700.247 14.2431Z" fill="white"/>
<path d="M502.206 75.6691L752.73 77.4903L745.481 62.5891L516.559 62.4236L502.206 75.6691Z" fill="white"/>
<path d="M544.395 144.877C558.488 144.877 569.912 131.83 569.912 115.737C569.912 99.643 558.488 86.5966 544.395 86.5966C530.303 86.5966 518.879 99.643 518.879 115.737C518.879 131.83 530.303 144.877 544.395 144.877Z" fill="white"/>
<path d="M569.186 144.049C578.394 144.049 585.859 135.524 585.859 125.009C585.859 114.493 578.394 105.968 569.186 105.968C559.978 105.968 552.514 114.493 552.514 125.009C552.514 135.524 559.978 144.049 569.186 144.049Z" fill="white"/>
<path d="M737.652 172.196C751.985 172.196 763.603 158.927 763.603 142.559C763.603 126.191 751.985 112.922 737.652 112.922C723.32 112.922 711.701 126.191 711.701 142.559C711.701 158.927 723.32 172.196 737.652 172.196Z" fill="white"/>
<path d="M710.831 165.738C720.199 165.738 727.793 157.065 727.793 146.367C727.793 135.668 720.199 126.995 710.831 126.995C701.463 126.995 693.868 135.668 693.868 146.367C693.868 157.065 701.463 165.738 710.831 165.738Z" fill="white"/>
<path d="M640.371 437.602L648.925 434.622L652.984 513.929L649.65 515.585L640.371 437.602Z" fill="white"/>
<path d="M705.031 414.753L718.079 410.118L734.027 482.637L730.258 483.796L705.031 414.753Z" fill="white"/>
<path d="M552.224 431.641L535.841 491.577L531.347 489.259L539.031 429.323L552.224 431.641Z" fill="white"/>
<path d="M628.917 440.251H633.702L640.371 437.602L649.649 515.585L645.59 514.426L628.917 440.251Z" fill="white"/>
<path d="M612.245 212.098L688.794 211.766L687.344 405.482L623.118 412.27L613.84 416.409L539.176 411.277L539.321 405.813L621.234 394.057L612.245 212.098Z" fill="url(#paint0_linear)"/>
<path d="M586.004 212.429L612.245 212.098L624.713 401.342L534.536 406.806L529.462 365.249L550.194 360.613L596.877 357.632L586.004 212.429Z" fill="url(#paint1_linear)"/>
<path d="M519.024 410.118L519.459 423.032C519.459 423.032 519.314 428.33 525.113 428.496C531.057 428.661 628.773 440.085 628.773 440.085C628.773 440.085 636.601 442.403 648.78 434.622L719.239 409.124C719.239 409.124 721.704 408.959 721.414 404.157C721.124 399.356 733.447 216.733 733.447 216.237C733.447 215.74 731.853 213.919 728.663 213.588C725.763 213.422 695.608 211.27 695.608 211.27L695.753 350.182C695.753 350.182 696.623 362.931 691.403 363.427C679.805 364.586 632.252 363.758 626.163 369.388C622.104 373.196 631.382 405.647 632.252 412.27C632.542 414.257 619.784 413.429 615.869 414.588C612.97 415.747 519.024 410.118 519.024 410.118Z" fill="url(#paint2_linear)"/>
<path d="M619.059 364.753C619.059 364.753 611.955 364.753 611.665 370.382C611.375 375.183 611.23 404.324 611.23 413.595C611.23 414.92 611.085 416.244 610.94 417.403C610.65 419.059 612.245 422.37 615.724 422.536C622.538 422.702 630.222 422.536 630.222 422.536C630.222 422.536 633.557 421.377 632.832 415.085C632.252 408.794 626.163 376.011 626.163 376.011C626.163 376.011 624.278 368.23 630.802 368.23C637.326 368.23 688.939 363.925 688.939 363.925C688.939 363.925 696.043 364.256 696.333 356.805C696.622 349.355 697.927 216.569 697.927 216.569C697.927 216.569 698.797 210.939 694.593 210.608C690.243 210.277 681.69 211.271 681.69 211.271C681.69 211.271 678.935 211.602 678.935 216.238C678.935 220.874 683.864 353.163 683.284 355.812C682.415 359.951 673.571 360.945 668.932 361.276C664.002 361.772 619.059 364.753 619.059 364.753Z" fill="#E5A4ED"/>
<path d="M569.911 219.217C569.911 219.217 569.041 209.945 574.695 210.442C578.465 210.773 582.379 211.601 586.149 212.429C586.149 212.429 588.468 212.098 588.903 215.078C589.338 218.058 607.461 357.798 606.156 358.295C604.851 358.791 542.075 362.931 540.77 362.931C539.321 362.931 534.246 362.765 534.826 367.401C535.406 372.037 539.465 404.323 539.465 405.647C539.465 406.972 540.045 411.608 538.886 412.104C537.871 412.436 519.168 411.442 519.168 411.442L520.618 367.566C520.618 367.566 520.473 360.116 524.243 359.619C528.012 359.122 593.253 356.142 593.978 355.314C594.702 354.487 592.673 346.87 591.948 343.559C591.368 341.572 569.911 219.217 569.911 219.217Z" fill="#E5A4ED"/>
<path d="M322.143 491.908H319.968L308.515 492.074C308.515 492.074 306.05 505.485 304.601 511.114C304.601 511.446 304.166 512.439 304.166 513.101C304.021 514.095 303.876 515.088 303.876 516.081C304.166 521.214 305.76 525.519 309.82 527.837C314.169 530.32 317.504 532.638 322.288 527.837C326.927 523.035 327.507 519.89 325.767 511.446C323.883 502.836 323.158 492.074 322.143 491.908Z" fill="#4B44BE"/>
<path d="M370.131 508.631C362.157 505.816 356.938 493.399 356.938 493.399L343.455 492.405C343.455 492.405 342.73 504.823 342.295 511.28C341.86 519.724 343.02 523.366 347.949 523.035C354.329 522.539 380.28 525.188 384.484 522.042C389.848 518.234 377.525 511.28 370.131 508.631Z" fill="#4B44BE"/>
<path d="M289.088 270.212V288.59L308.66 492.074H322.433C322.433 492.074 327.217 352.5 327.217 347.698C327.217 342.897 328.377 327.664 328.377 327.664C328.377 327.664 345.774 384.951 346.064 389.753C346.354 394.554 343.31 493.233 343.31 493.233L357.083 493.895C357.083 493.895 369.116 427.171 369.116 420.879C369.116 414.588 373.175 381.805 372.595 375.348C372.015 369.057 361.722 270.709 361.722 270.709L340.555 270.047L289.088 270.212Z" fill="url(#paint3_linear)"/>
<path d="M378.685 248.854L378.54 248.523C378.54 248.688 378.54 248.854 378.685 248.854ZM338.091 230.972L330.407 234.615L329.972 246.867L338.525 250.675L347.804 250.178C347.804 249.682 351.429 249.847 353.168 251.006L382.164 239.582L383.179 231.635C383.179 231.635 385.354 241.569 375.64 221.535L338.091 230.972ZM372.596 190.574L372.016 186.6L370.566 186.269L372.596 190.574ZM319.098 84.4442C315.474 86.0999 313.879 92.0604 313.879 92.0604C313.879 92.0604 312.139 90.9014 312.139 94.2127C312.139 97.5241 313.589 105.14 314.604 107.127C316.489 110.438 318.083 113.75 319.533 117.227C320.983 120.704 320.403 127.823 318.953 128.982C317.504 129.976 291.117 156.963 291.117 156.963L269.371 232.959V235.939L272.705 237.264L276.185 240.575C276.475 240.575 280.824 243.39 281.404 243.887C284.883 245.874 288.508 247.364 292.277 248.357C294.742 248.854 305.615 248.688 305.615 248.688L316.634 248.357L314.749 232.297L298.511 232.131L276.33 230.807L298.801 171.533L369.986 186.103C357.373 159.943 343.165 130.638 341.86 127.658C340.845 125.174 341.86 119.048 342.585 115.902C343.165 113.088 344.325 109.445 345.484 108.452C346.644 107.458 348.674 102.822 348.674 100.67C348.674 98.5175 349.109 90.7358 347.659 92.3915C347.224 92.8882 345.484 89.908 344.905 86.9277C343.89 82.6229 341.28 79.4771 338.236 76.6625C338.236 76.6625 322.578 82.6229 319.098 84.2786" fill="url(#paint4_linear)"/>
<path d="M291.987 140.572C288.508 143.221 285.318 146.864 284.158 151.499C282.999 156.135 274.735 192.229 273.575 196.7C270.82 207.793 269.226 211.104 266.036 224.184C262.122 240.244 271.11 242.728 280.389 245.211C289.958 247.695 290.103 248.688 292.277 248.688C292.712 248.688 304.021 251.337 304.311 244.052C304.601 239.416 303.876 232.131 302.281 232.297C298.801 232.794 287.493 229.482 286.913 228.986C286.188 228.489 289.378 218.389 291.262 212.098C292.567 207.462 297.787 188.256 298.946 184.613C299.526 182.626 296.047 203.322 293.872 223.522C293.872 224.35 293.002 232.131 293.147 232.131C295.757 232.131 302.861 232.297 305.035 232.628C315.039 233.953 316.924 239.416 316.344 243.721C315.184 251.337 290.973 247.86 291.117 248.854C291.117 248.854 286.913 270.378 289.233 271.702C291.262 272.861 318.374 285.776 324.173 288.259C324.753 288.59 325.477 288.259 325.767 287.431L329.392 275.345C329.392 275.179 329.537 275.179 329.682 275.179C329.682 275.179 329.827 275.179 329.827 275.345L333.306 288.59C333.306 288.921 333.596 289.253 333.886 289.418H335.481L365.637 281.967C365.637 281.967 365.492 268.391 365.492 251.006C365.492 249.185 365.202 242.728 364.187 244.052C363.027 245.211 337.946 249.019 335.191 247.695C329.392 244.88 330.842 237.926 332.871 235.112C335.191 231.8 364.912 230.145 365.057 227.827C365.492 217.23 364.767 189.249 364.332 192.56C363.607 197.859 346.209 226.502 346.209 231.635C346.209 236.767 345.919 249.185 345.919 249.185L374.48 246.701C374.48 246.701 384.049 242.893 384.919 236.602C385.789 230.31 384.774 227.495 384.339 218.058C384.049 212.098 376.655 176.169 374.625 166.069C374.335 164.579 374.19 162.924 374.045 161.434C373.755 157.294 372.306 147.36 364.332 143.055C354.473 137.757 346.789 133.452 344.905 133.452C343.02 133.452 338.091 146.036 335.336 149.678C334.176 151.334 334.466 151.996 332.871 154.48C332.002 155.804 330.552 155.97 329.537 155.142C329.247 154.976 329.102 154.645 328.957 154.314C328.087 152.99 327.362 151.334 326.637 149.844C325.477 147.195 316.489 131.962 316.489 131.962C316.489 131.962 295.322 137.923 291.987 140.572Z" fill="url(#paint5_linear)"/>
<path d="M338.38 76.9936C338.38 76.9936 319.098 85.272 317.793 86.431C316.489 87.59 313.879 92.0603 313.879 92.0603C313.879 92.0603 312.574 91.2325 312.284 93.5505C312.284 93.5505 310.255 88.9145 310.11 86.2654C309.82 83.6163 310.11 76.9936 313.734 72.5232C317.359 68.0529 324.897 62.258 329.392 63.0858C333.886 63.9137 335.916 64.4104 338.815 67.7218C341.715 71.0331 344.18 72.0265 345.049 72.5232C345.919 73.0199 349.254 75.669 349.834 80.8017C350.414 85.9343 348.819 96.1995 348.819 96.1995C348.819 96.1995 349.254 92.2259 347.804 93.3849C346.789 94.2127 345.339 90.5702 345.049 88.4178C344.47 86.431 339.54 77.4903 338.38 76.9936Z" fill="url(#paint6_linear)"/>
<path d="M310.545 218.389L343.02 223.025C343.745 223.191 344.18 224.019 344.035 224.846L343.165 258.457C343.165 259.45 342.585 260.94 341.715 260.609L309.385 253.49C308.805 253.324 308.37 252.662 308.37 251.834L308.225 248.192L311.849 247.198C312.719 246.867 313.589 246.37 314.314 245.708C314.459 245.542 314.604 245.377 314.749 245.211L315.474 243.887C315.764 243.556 315.764 243.059 315.764 242.562C315.619 241.734 315.474 240.741 315.329 240.244C315.329 240.079 315.184 239.748 315.184 239.748L314.314 237.761C313.879 236.767 313.299 236.105 312.574 235.774L312.139 235.443L308.66 233.29L308.95 220.21C308.95 219.217 309.675 218.555 310.4 218.555C310.4 218.389 310.545 218.389 310.545 218.389Z" fill="white"/>
<path d="M597.023 355.314C597.023 355.314 606.591 394.72 604.997 399.19C603.402 403.66 595.718 404.488 592.239 405.316C588.759 406.144 557.444 415.416 554.254 415.747C551.065 415.913 551.355 416.409 549.905 416.409C548.455 416.409 531.058 409.786 530.478 407.469C529.898 405.151 529.318 403.495 529.898 400.68C530.478 397.866 538.306 360.116 540.481 359.288C542.656 358.46 597.023 355.314 597.023 355.314Z" fill="url(#paint7_linear)"/>
<path d="M598.618 362.434C598.618 362.434 597.893 356.308 597.023 355.314C596.008 354.487 593.398 350.347 590.789 350.182C588.179 350.016 546.425 355.977 544.83 356.308C543.236 356.639 541.206 357.632 540.481 359.122C539.756 360.613 546.57 362.434 547.875 367.07C549.18 371.706 572.956 381.64 578.9 382.302C584.845 383.13 598.618 362.434 598.618 362.434Z" fill="#7A5BF5"/>
<path d="M584.99 351.837C584.99 351.837 580.495 340.744 578.321 338.758C576.436 336.936 569.622 332.963 565.418 338.923C560.778 345.711 561.213 353.493 561.213 354.487C561.213 355.48 565.853 354.652 565.853 354.652C565.853 354.652 564.403 346.705 565.708 343.89C566.867 341.407 567.592 338.261 571.942 338.592C576.291 338.923 577.886 341.572 579.046 344.221C580.205 346.705 581.075 349.354 581.8 352.169C581.945 352.169 584.99 351.837 584.99 351.837Z" fill="#7A5BF5"/>
<path d="M577.741 352.5C577.741 352.5 573.246 338.923 571.072 336.44C569.187 334.122 561.938 329.651 557.734 336.936C553.094 345.215 553.964 354.321 553.964 355.48C553.964 356.639 558.603 355.646 558.603 355.646C558.603 355.646 557.154 345.877 558.458 342.4C559.618 339.254 560.343 335.612 564.548 335.943C568.752 336.274 570.492 339.585 571.652 342.731C572.811 345.877 573.681 349.023 574.406 352.5C574.696 352.996 577.741 352.5 577.741 352.5Z" fill="#7A5BF5"/>
<path d="M549.76 369.884C549.76 369.884 553.674 407.8 553.239 410.283C552.804 412.767 551.355 416.409 550.485 416.409C549.615 416.409 548.02 416.244 548.6 415.25C550.63 411.939 551.5 407.965 550.92 404.157C550.34 398.031 548.02 366.904 548.02 366.904L549.76 369.884Z" fill="#7A5BF5"/>
<path d="M579.915 385.282C581.276 385.282 582.38 384.022 582.38 382.468C582.38 380.913 581.276 379.653 579.915 379.653C578.554 379.653 577.45 380.913 577.45 382.468C577.45 384.022 578.554 385.282 579.915 385.282Z" fill="white"/>
</g>
<defs>
<linearGradient id="paint0_linear" x1="540.654" y1="236.916" x2="686.713" y2="350.883" gradientUnits="userSpaceOnUse">
<stop stop-color="#E5A4ED"/>
<stop offset="1" stop-color="#7A5BF5"/>
</linearGradient>
<linearGradient id="paint1_linear" x1="669.661" y1="168.926" x2="559.297" y2="350.473" gradientUnits="userSpaceOnUse">
<stop stop-color="#E5A4ED"/>
<stop offset="1" stop-color="#7A5BF5"/>
</linearGradient>
<linearGradient id="paint2_linear" x1="538.491" y1="279.243" x2="747.765" y2="355.186" gradientUnits="userSpaceOnUse">
<stop stop-color="#E5A4ED"/>
<stop offset="1" stop-color="#7A5BF5"/>
</linearGradient>
<linearGradient id="paint3_linear" x1="289.052" y1="381.965" x2="372.774" y2="381.965" gradientUnits="userSpaceOnUse">
<stop stop-color="#4B45BD"/>
<stop offset="1" stop-color="#58CAEA"/>
</linearGradient>
<linearGradient id="paint4_linear" x1="269.642" y1="163.914" x2="383.295" y2="163.914" gradientUnits="userSpaceOnUse">
<stop stop-color="#F87B58"/>
<stop offset="0.41" stop-color="#F89453"/>
<stop offset="0.71" stop-color="#F8C548"/>
<stop offset="1" stop-color="#F89C51"/>
</linearGradient>
<linearGradient id="paint5_linear" x1="265.135" y1="210.245" x2="385.266" y2="210.245" gradientUnits="userSpaceOnUse">
<stop stop-color="#E5A4ED"/>
<stop offset="1" stop-color="#7A5BF5"/>
</linearGradient>
<linearGradient id="paint6_linear" x1="309.93" y1="79.6674" x2="349.92" y2="79.6674" gradientUnits="userSpaceOnUse">
<stop stop-color="#4B45BD"/>
<stop offset="1" stop-color="#58CAEA"/>
</linearGradient>
<linearGradient id="paint7_linear" x1="619.026" y1="355.809" x2="542.466" y2="387.115" gradientUnits="userSpaceOnUse">
<stop stop-color="#7A5BF5"/>
<stop offset="1" stop-color="#CD94EF"/>
</linearGradient>
<clipPath id="clip0">
<rect width="820" height="529" fill="white"/>
</clipPath>
</defs>
</svg>

